<?xml version="1.0" encoding="utf-8"?>
<!-- Generator: Adobe Illustrator 24.3.0, SVG Export Plug-In . SVG Version: 6.00 Build 0)  -->
<svg version="1.0" id="katman_1" xmlns="http://www.w3.org/2000/svg" xmlns:xlink="http://www.w3.org/1999/xlink" x="0px" y="0px"
	 viewBox="0 0 841.89 595.28" style="enable-background:new 0 0 841.89 595.28;" xml:space="preserve">
<polygon points="236.34,492.28 199.59,492.28 199.59,459.92 183.31,459.92 183.31,540.15 199.59,540.15 199.59,507.56 
	236.34,507.56 236.34,540.15 252.62,540.15 252.62,459.92 236.34,459.92 "/>
<path d="M328.04,505.83c0,13.04-6.48,20.02-18.24,20.02c-11.83,0-18.33-7.17-18.33-20.57v-45.31h-16.28v45.87
	c0,22.56,12.55,35.51,34.41,35.51c22.07,0,34.73-13.18,34.73-36.17v-45.25h-16.28V505.83z"/>
<polygon points="516.17,515.08 497.95,459.9 484.66,459.9 466.45,515.08 448.73,459.95 431.41,459.95 459.37,540.15 472.85,540.15 
	491.09,487.47 509.33,540.15 522.92,540.15 550.81,459.95 533.94,459.95 "/>
<polygon points="579.99,505.62 609.6,505.62 609.6,491 579.99,491 579.99,474.59 622.97,474.59 622.97,459.97 563.94,459.97 
	563.94,540.09 624.51,540.09 624.51,525.47 579.99,525.47 "/>
<rect x="643.92" y="459.91" width="16.06" height="80.13"/>
<path d="M413.2,523.4l7.21,16.7h17.07l-35.21-80.19h-14.35l-35.35,80.19h16.61l7.31-16.7H413.2z M394.81,480.22l12.34,28.71h-24.6
	L394.81,480.22z"/>
<path d="M625.47,195.97c2.64-41.07-38.7-79.09-38.7-79.09s-76.67,92.85-132.54,214.81c-0.3,0.64-0.4,1.71,0.26,2.27
	c0.46,0.39,1.29,0.64,2.15,0.22c20.94-10.39,108-55.24,144.68-90.21C601.33,243.97,624.27,225.54,625.47,195.97 M527.75,103.29
	c0,0-9.6-35.78-48.49-45.24c0,0-11.2-2.84-23.1-4.52c0,0-43.47,55.96-22.34,267.13c0.12,1.11,0.7,1.51,1.22,1.63
	c0.78,0.21,1.55-0.08,2.07-0.82c13.94-20.14,77.49-114.36,90.4-171.65C527.5,149.82,534.5,122.08,527.75,103.29 M468.14,364.02
	c-0.23,0.46-0.44,1.59,0.46,2.24c14.03,10.06,56.6,39.83,77.12,45.61c0,0,37.91,12.93,70.86-43.67c0,0-110.22-3.83-146.87-5.11
	C469.18,363.07,468.44,363.43,468.14,364.02 M655.62,238.5c0,0-124.71,66.96-189.17,110.4c-0.48,0.32-1.07,0.95-0.75,2.11
	c0.17,0.6,0.75,1.15,1.53,1.16c23.08,0.03,110.46,0.14,112.66-0.27c0,0,11.3-0.46,25.26-5.81c0,0,31.08-9.87,47.22-45.17
	C652.36,300.91,666.77,272.12,655.62,238.5 M375.93,348.9c-64.46-43.44-189.16-110.4-189.16-110.4
	c-11.14,33.63,3.26,62.42,3.26,62.42c16.14,35.3,47.22,45.17,47.22,45.17c13.96,5.36,25.25,5.81,25.25,5.81
	c2.21,0.41,89.58,0.3,112.66,0.27c0.77-0.01,1.36-0.55,1.54-1.16C377.01,349.85,376.4,349.22,375.93,348.9 M372.68,363.09
	c-36.65,1.28-146.87,5.11-146.87,5.11c32.94,56.59,70.87,43.67,70.87,43.67c20.51-5.78,63.08-35.55,77.11-45.61
	c0.88-0.64,0.68-1.78,0.46-2.24C373.93,363.43,373.19,363.07,372.68,363.09 M363.12,58.05c-38.88,9.46-48.48,45.24-48.48,45.24
	c-6.76,18.79,0.24,46.53,0.24,46.53c12.91,57.3,76.46,151.52,90.4,171.65c0.52,0.74,1.29,1.03,2.07,0.82
	c0.52-0.13,1.11-0.53,1.22-1.63c21.13-211.17-22.33-267.13-22.33-267.13C374.32,55.21,363.12,58.05,363.12,58.05 M255.61,116.88
	c0,0-41.35,38.01-38.7,79.09c1.21,29.57,24.14,48.01,24.14,48.01c36.69,34.97,123.74,79.82,144.69,90.21
	c0.86,0.43,1.69,0.17,2.14-0.22c0.66-0.55,0.55-1.62,0.27-2.27C332.27,209.73,255.61,116.88,255.61,116.88"/>
</svg>
